<svg width="18" height="15" viewBox="0 0 18 15" fill="none" xmlns="http://www.w3.org/2000/svg">
<path d="M0.5 13.7435H2.12075M2.12075 13.7435H6.98301M2.12075 13.7435V6.81648C2.12075 6.38347 2.12075 6.16684 2.1734 5.96535C2.22006 5.78679 2.29725 5.61781 2.4009 5.46511C2.51787 5.29281 2.68043 5.14992 3.00631 4.86478L6.8974 1.46007C7.50152 0.931465 7.8036 0.667144 8.14381 0.566537C8.4438 0.477821 8.76356 0.477821 9.06355 0.566537C9.40401 0.66722 9.70653 0.931789 10.3116 1.4612L14.2014 4.86478C14.5272 5.14991 14.6899 5.29281 14.8068 5.46511C14.9105 5.61781 14.9871 5.78679 15.0337 5.96535C15.0864 6.16684 15.0868 6.38347 15.0868 6.81648V13.7435M6.98301 13.7435H10.2245M6.98301 13.7435V10.502C6.98301 9.60684 7.70864 8.8812 8.60376 8.8812C9.49888 8.8812 10.2245 9.60684 10.2245 10.502V13.7435M10.2245 13.7435H15.0868M15.0868 13.7435H16.7075" stroke="black" stroke-linecap="round" stroke-linejoin="round"/>
</svg>
