<svg width="1191" height="556" viewBox="0 0 1191 556" fill="none" xmlns="http://www.w3.org/2000/svg">
<line x1="22.7212" y1="338.811" x2="457.426" y2="338.811" stroke="#999999" stroke-width="2" stroke-dasharray="4 4"/>
<path opacity="0.9" d="M6.66667 348.055C5.40741 348.055 4.28148 347.737 3.28889 347.1C2.2963 346.463 1.51852 345.544 0.955556 344.344C0.392593 343.129 0.111111 341.692 0.111111 340.033C0.111111 338.374 0.392593 336.944 0.955556 335.744C1.51852 334.529 2.2963 333.604 3.28889 332.967C4.28148 332.329 5.40741 332.011 6.66667 332.011C7.94074 332.011 9.07407 332.329 10.0667 332.967C11.0593 333.604 11.8296 334.529 12.3778 335.744C12.9407 336.944 13.2222 338.374 13.2222 340.033C13.2222 341.692 12.9407 343.129 12.3778 344.344C11.8296 345.544 11.0593 346.463 10.0667 347.1C9.07407 347.737 7.94074 348.055 6.66667 348.055ZM6.66667 345.389C7.71852 345.389 8.54815 344.944 9.15556 344.055C9.77778 343.152 10.0889 341.811 10.0889 340.033C10.0889 338.255 9.77778 336.922 9.15556 336.033C8.54815 335.129 7.71852 334.678 6.66667 334.678C5.62963 334.678 4.8 335.129 4.17778 336.033C3.57037 336.922 3.26667 338.255 3.26667 340.033C3.26667 341.811 3.57037 343.152 4.17778 344.055C4.8 344.944 5.62963 345.389 6.66667 345.389Z" fill="#444444"/>
<path d="M98.3267 49.811C98.3267 44.2881 102.804 39.811 108.327 39.811H168.327C173.85 39.811 178.327 44.2881 178.327 49.811V339.811H98.3267V49.811Z" fill="url(#paint0_linear_6051_254)"/>
<path d="M98.3267 339.811H178.327V389.811C178.327 395.334 173.85 399.811 168.327 399.811H108.327C102.804 399.811 98.3267 395.334 98.3267 389.811V339.811Z" fill="url(#paint1_linear_6051_254)"/>
<path opacity="0.9" d="M91.3044 14.8H74.9489V12.3556H81.7044V11.0667C79.897 10.9333 78.4526 10.5481 77.3711 9.91111C76.2896 9.27407 75.7489 8.4 75.7489 7.28889C75.7489 6.02963 76.4304 5.07407 77.7933 4.42222C79.1563 3.77037 80.9341 3.44444 83.1267 3.44444C85.3193 3.44444 87.097 3.77037 88.46 4.42222C89.823 5.07407 90.5044 6.02963 90.5044 7.28889C90.5044 8.4 89.9563 9.27407 88.86 9.91111C87.7785 10.5481 86.3341 10.9333 84.5267 11.0667V12.3556H91.3044V14.8ZM78.7267 7.28889C78.7267 7.77778 79.1267 8.15556 79.9267 8.42222C80.7415 8.67407 81.8081 8.8 83.1267 8.8C84.4452 8.8 85.5044 8.67407 86.3044 8.42222C87.1044 8.15556 87.5044 7.77778 87.5044 7.28889C87.5044 6.8 87.097 6.42222 86.2822 6.15556C85.4822 5.88889 84.4304 5.75556 83.1267 5.75556C81.823 5.75556 80.7637 5.88889 79.9489 6.15556C79.1341 6.42222 78.7267 6.8 78.7267 7.28889ZM90.5267 18.2V20.6889H75.9489V15.7333H78.8155V18.2H90.5267ZM105.258 12.0444V3.68889H108.08V12.0444H105.258ZM98.3688 9.08889C97.7021 9.91852 96.8873 10.5926 95.9243 11.1111C94.9614 11.6296 93.9095 11.9407 92.7688 12.0444V9.44444C94.1317 9.23704 95.2354 8.62222 96.0799 7.6C96.9243 6.56296 97.3539 5.28889 97.3688 3.77778L100.191 3.95555C100.191 5.00741 99.9984 6.02222 99.6132 7L104.28 9.62222L102.969 11.7778L98.3688 9.08889ZM108.324 20.6889H93.791V15.8H105.302V14.8222H93.7688V12.7556H108.08V17.6444H96.591V18.6222H108.324V20.6889ZM125.211 12.9778V20.7556H122.411V3.68889H125.211V10.1333H127.233V12.9778H125.211ZM119.722 4.15555V8.62222C119.722 10.9037 119.352 12.8889 118.611 14.5778C117.885 16.2667 116.833 17.5704 115.455 18.4889C114.092 19.4074 112.485 19.8667 110.633 19.8667V17.0667C112.633 17.0667 114.166 16.3259 115.233 14.8444C116.315 13.3481 116.855 11.2815 116.855 8.64444V6.84444H110.633V4.15555H119.722ZM135.786 9.93333C134.823 11.3556 133.668 12.4741 132.32 13.2889C130.971 14.1037 129.549 14.5185 128.053 14.5333V11.7333C129.149 11.7333 130.201 11.3852 131.209 10.6889C132.216 9.97778 133.068 9.01481 133.764 7.8C134.46 6.57037 134.912 5.19259 135.12 3.66667L137.986 4.13333C137.809 5.33333 137.483 6.4963 137.009 7.62222L144.009 12.2222L142.52 14.6L135.786 9.93333ZM144.097 17.3333V20.0889H127.742V17.3333H144.097ZM165.712 20.7556H163.09V12.9333H161.334V20.4667H158.734V3.75556H161.334V10.1333H163.09V3.68889H165.712V20.7556ZM157.334 4.11111V19.8889H150.09V4.11111H152.645V9.42222H154.756V4.11111H157.334ZM154.756 12.0667H152.645V17.2444H154.756V12.0667ZM175.043 8.57778C174.184 9.0963 173.117 9.5037 171.843 9.8C170.584 10.0815 169.272 10.237 167.909 10.2667V8.15556C169.243 8.11111 170.472 7.94074 171.598 7.64444C172.739 7.33333 173.532 6.91111 173.976 6.37778H168.198V4.31111H174.087V3H176.932V4.31111H182.798V6.37778H177.109C177.08 6.52593 177.013 6.68889 176.909 6.86667L183.132 8.26667L182.576 10.3333L175.043 8.57778ZM176.932 13.9333H182.687V18.0889H171.109V18.8889H182.887V20.6889H168.354V16.5111H179.932V15.7333H168.309V13.9333H174.087V13H167.332V10.8889H183.687V13H176.932V13.9333ZM199.996 9.2H202.018V11.6889H199.996V13.8222H197.196V3.68889H199.996V5.11111H202.018V7.57778H199.996V9.2ZM192.196 6.2H185.307V3.95555H194.974V9.64444H188.152V11H192.152C192.996 11 193.781 10.9481 194.507 10.8444C195.248 10.7259 195.848 10.563 196.307 10.3556V12.6C195.877 12.8074 195.277 12.9704 194.507 13.0889C193.752 13.1926 192.922 13.2444 192.018 13.2444H185.352V7.55556H192.196V6.2ZM192.974 14.1556C195.181 14.1556 196.929 14.4222 198.218 14.9556C199.522 15.4741 200.174 16.3333 200.174 17.5333C200.174 18.7185 199.522 19.5704 198.218 20.0889C196.929 20.6222 195.181 20.8889 192.974 20.8889C190.766 20.8889 189.011 20.6222 187.707 20.0889C186.418 19.5704 185.774 18.7185 185.774 17.5333C185.774 16.3333 186.418 15.4741 187.707 14.9556C189.011 14.4222 190.766 14.1556 192.974 14.1556ZM192.974 18.6222C195.774 18.6222 197.174 18.2593 197.174 17.5333C197.174 16.7926 195.774 16.4222 192.974 16.4222C190.174 16.4222 188.774 16.7926 188.774 17.5333C188.774 18.2593 190.174 18.6222 192.974 18.6222Z" fill="#444444"/>
<path opacity="0.9" d="M91.3044 430.525H74.9489V428.081H81.7044V426.792C79.897 426.659 78.4526 426.274 77.3711 425.637C76.2896 425 75.7489 424.125 75.7489 423.014C75.7489 421.755 76.4304 420.8 77.7933 420.148C79.1563 419.496 80.9341 419.17 83.1267 419.17C85.3193 419.17 87.097 419.496 88.46 420.148C89.823 420.8 90.5044 421.755 90.5044 423.014C90.5044 424.125 89.9563 425 88.86 425.637C87.7785 426.274 86.3341 426.659 84.5267 426.792V428.081H91.3044V430.525ZM78.7267 423.014C78.7267 423.503 79.1267 423.881 79.9267 424.148C80.7415 424.4 81.8081 424.525 83.1267 424.525C84.4452 424.525 85.5044 424.4 86.3044 424.148C87.1044 423.881 87.5044 423.503 87.5044 423.014C87.5044 422.525 87.097 422.148 86.2822 421.881C85.4822 421.614 84.4304 421.481 83.1267 421.481C81.823 421.481 80.7637 421.614 79.9489 421.881C79.1341 422.148 78.7267 422.525 78.7267 423.014ZM90.5267 433.925V436.414H75.9489V431.459H78.8155V433.925H90.5267ZM105.258 427.77V419.414H108.08V427.77H105.258ZM98.3688 424.814C97.7021 425.644 96.8873 426.318 95.9243 426.837C94.9614 427.355 93.9095 427.666 92.7688 427.77V425.17C94.1317 424.963 95.2354 424.348 96.0799 423.325C96.9243 422.288 97.3539 421.014 97.3688 419.503L100.191 419.681C100.191 420.733 99.9984 421.748 99.6132 422.725L104.28 425.348L102.969 427.503L98.3688 424.814ZM108.324 436.414H93.791V431.525H105.302V430.548H93.7688V428.481H108.08V433.37H96.591V434.348H108.324V436.414ZM125.211 428.703V436.481H122.411V419.414H125.211V425.859H127.233V428.703H125.211ZM119.722 419.881V424.348C119.722 426.629 119.352 428.614 118.611 430.303C117.885 431.992 116.833 433.296 115.455 434.214C114.092 435.133 112.485 435.592 110.633 435.592V432.792C112.633 432.792 114.166 432.051 115.233 430.57C116.315 429.074 116.855 427.007 116.855 424.37V422.57H110.633V419.881H119.722ZM135.786 425.659C134.823 427.081 133.668 428.2 132.32 429.014C130.971 429.829 129.549 430.244 128.053 430.259V427.459C129.149 427.459 130.201 427.111 131.209 426.414C132.216 425.703 133.068 424.74 133.764 423.525C134.46 422.296 134.912 420.918 135.12 419.392L137.986 419.859C137.809 421.059 137.483 422.222 137.009 423.348L144.009 427.948L142.52 430.325L135.786 425.659ZM144.097 433.059V435.814H127.742V433.059H144.097ZM150.356 421.925V419.925H156.49V418.725H159.334V419.925H165.467V421.925H150.356ZM150.867 424.837C150.867 424.007 151.497 423.4 152.756 423.014C154.016 422.629 155.734 422.437 157.912 422.437C160.09 422.437 161.808 422.629 163.067 423.014C164.327 423.4 164.956 424.007 164.956 424.837C164.956 425.666 164.327 426.274 163.067 426.659C161.823 427.029 160.104 427.214 157.912 427.214C155.719 427.214 153.993 427.029 152.734 426.659C151.49 426.274 150.867 425.666 150.867 424.837ZM162.156 424.837C162.156 424.629 161.771 424.474 161.001 424.37C160.245 424.266 159.216 424.214 157.912 424.214C155.082 424.214 153.667 424.422 153.667 424.837C153.667 425.251 155.082 425.459 157.912 425.459C159.216 425.459 160.245 425.407 161.001 425.303C161.771 425.2 162.156 425.044 162.156 424.837ZM166.09 430.037H149.734V427.97H166.09V430.037ZM165.09 430.77V436.414H150.734V430.77H153.49V431.659H162.356V430.77H165.09ZM162.356 433.503H153.49V434.459H162.356V433.503ZM175.376 424.703C174.428 425.918 173.28 426.874 171.932 427.57C170.598 428.251 169.191 428.592 167.709 428.592V425.792C168.791 425.792 169.835 425.511 170.843 424.948C171.85 424.385 172.695 423.6 173.376 422.592C174.072 421.585 174.517 420.451 174.709 419.192L177.576 419.637C177.428 420.555 177.139 421.496 176.709 422.459L183.532 426.125L182.198 428.592L175.376 424.703ZM176.954 432.77V436.881H174.065V432.77H167.332V430.037H183.687V432.77H176.954ZM199.996 424.925H202.018V427.414H199.996V429.548H197.196V419.414H199.996V420.837H202.018V423.303H199.996V424.925ZM192.196 421.925H185.307V419.681H194.974V425.37H188.152V426.725H192.152C192.996 426.725 193.781 426.674 194.507 426.57C195.248 426.451 195.848 426.288 196.307 426.081V428.325C195.877 428.533 195.277 428.696 194.507 428.814C193.752 428.918 192.922 428.97 192.018 428.97H185.352V423.281H192.196V421.925ZM192.974 429.881C195.181 429.881 196.929 430.148 198.218 430.681C199.522 431.2 200.174 432.059 200.174 433.259C200.174 434.444 199.522 435.296 198.218 435.814C196.929 436.348 195.181 436.614 192.974 436.614C190.766 436.614 189.011 436.348 187.707 435.814C186.418 435.296 185.774 434.444 185.774 433.259C185.774 432.059 186.418 431.2 187.707 430.681C189.011 430.148 190.766 429.881 192.974 429.881ZM192.974 434.348C195.774 434.348 197.174 433.985 197.174 433.259C197.174 432.518 195.774 432.148 192.974 432.148C190.174 432.148 188.774 432.518 188.774 433.259C188.774 433.985 190.174 434.348 192.974 434.348Z" fill="#444444"/>
<path opacity="0.9" d="M126.76 161.166H123.627V148.122H120.382V145.611H126.76V161.166ZM137.833 161.411C136.574 161.411 135.448 161.092 134.455 160.455C133.463 159.818 132.685 158.9 132.122 157.7C131.559 156.485 131.278 155.048 131.278 153.389C131.278 151.729 131.559 150.3 132.122 149.1C132.685 147.885 133.463 146.959 134.455 146.322C135.448 145.685 136.574 145.366 137.833 145.366C139.107 145.366 140.241 145.685 141.233 146.322C142.226 146.959 142.996 147.885 143.544 149.1C144.107 150.3 144.389 151.729 144.389 153.389C144.389 155.048 144.107 156.485 143.544 157.7C142.996 158.9 142.226 159.818 141.233 160.455C140.241 161.092 139.107 161.411 137.833 161.411ZM137.833 158.744C138.885 158.744 139.715 158.3 140.322 157.411C140.944 156.507 141.255 155.166 141.255 153.389C141.255 151.611 140.944 150.277 140.322 149.389C139.715 148.485 138.885 148.033 137.833 148.033C136.796 148.033 135.967 148.485 135.344 149.389C134.737 150.277 134.433 151.611 134.433 153.389C134.433 155.166 134.737 156.507 135.344 157.411C135.967 158.3 136.796 158.744 137.833 158.744ZM151.173 161.411C149.914 161.411 148.788 161.092 147.795 160.455C146.803 159.818 146.025 158.9 145.462 157.7C144.899 156.485 144.617 155.048 144.617 153.389C144.617 151.729 144.899 150.3 145.462 149.1C146.025 147.885 146.803 146.959 147.795 146.322C148.788 145.685 149.914 145.366 151.173 145.366C152.447 145.366 153.58 145.685 154.573 146.322C155.566 146.959 156.336 147.885 156.884 149.1C157.447 150.3 157.729 151.729 157.729 153.389C157.729 155.048 157.447 156.485 156.884 157.7C156.336 158.9 155.566 159.818 154.573 160.455C153.58 161.092 152.447 161.411 151.173 161.411ZM151.173 158.744C152.225 158.744 153.054 158.3 153.662 157.411C154.284 156.507 154.595 155.166 154.595 153.389C154.595 151.611 154.284 150.277 153.662 149.389C153.054 148.485 152.225 148.033 151.173 148.033C150.136 148.033 149.306 148.485 148.684 149.389C148.077 150.277 147.773 151.611 147.773 153.389C147.773 155.166 148.077 156.507 148.684 157.411C149.306 158.3 150.136 158.744 151.173 158.744Z" fill="white"/>
<path opacity="0.9" d="M134.316 381.622H122.76V379.578L128.871 373.755C129.553 373.089 130.012 372.526 130.249 372.066C130.486 371.592 130.604 371.118 130.604 370.644C130.604 369.948 130.367 369.415 129.893 369.044C129.434 368.659 128.753 368.466 127.849 368.466C126.338 368.466 125.182 369 124.382 370.066L122.116 368.578C122.723 367.718 123.545 367.044 124.582 366.555C125.619 366.066 126.804 365.822 128.138 365.822C129.264 365.822 130.249 366.007 131.093 366.378C131.938 366.733 132.59 367.252 133.049 367.933C133.523 368.615 133.76 369.415 133.76 370.333C133.76 371.163 133.575 371.948 133.204 372.689C132.849 373.429 132.167 374.274 131.16 375.222L127.182 379.066H134.316V381.622ZM141.833 381.866C140.574 381.866 139.448 381.548 138.455 380.911C137.463 380.274 136.685 379.355 136.122 378.155C135.559 376.94 135.278 375.503 135.278 373.844C135.278 372.185 135.559 370.755 136.122 369.555C136.685 368.34 137.463 367.415 138.455 366.778C139.448 366.14 140.574 365.822 141.833 365.822C143.107 365.822 144.241 366.14 145.233 366.778C146.226 367.415 146.996 368.34 147.544 369.555C148.107 370.755 148.389 372.185 148.389 373.844C148.389 375.503 148.107 376.94 147.544 378.155C146.996 379.355 146.226 380.274 145.233 380.911C144.241 381.548 143.107 381.866 141.833 381.866ZM141.833 379.2C142.885 379.2 143.715 378.755 144.322 377.866C144.944 376.963 145.255 375.622 145.255 373.844C145.255 372.066 144.944 370.733 144.322 369.844C143.715 368.94 142.885 368.489 141.833 368.489C140.796 368.489 139.967 368.94 139.344 369.844C138.737 370.733 138.433 372.066 138.433 373.844C138.433 375.622 138.737 376.963 139.344 377.866C139.967 378.755 140.796 379.2 141.833 379.2Z" fill="white"/>
<path d="M314.04 114.302C314.04 108.779 318.517 104.302 324.04 104.302H384.04C389.562 104.302 394.04 108.779 394.04 114.302V339.811H314.04V114.302Z" fill="url(#paint2_linear_6051_254)"/>
<path opacity="0.9" d="M335.822 370.504H319.466V368.06H326.222V366.771C324.415 366.637 322.97 366.252 321.889 365.615C320.807 364.978 320.266 364.104 320.266 362.993C320.266 361.734 320.948 360.778 322.311 360.126C323.674 359.474 325.452 359.149 327.644 359.149C329.837 359.149 331.615 359.474 332.978 360.126C334.341 360.778 335.022 361.734 335.022 362.993C335.022 364.104 334.474 364.978 333.378 365.615C332.296 366.252 330.852 366.637 329.044 366.771V368.06H335.822V370.504ZM323.244 362.993C323.244 363.482 323.644 363.86 324.444 364.126C325.259 364.378 326.326 364.504 327.644 364.504C328.963 364.504 330.022 364.378 330.822 364.126C331.622 363.86 332.022 363.482 332.022 362.993C332.022 362.504 331.615 362.126 330.8 361.86C330 361.593 328.948 361.46 327.644 361.46C326.341 361.46 325.281 361.593 324.466 361.86C323.652 362.126 323.244 362.504 323.244 362.993ZM335.044 373.904V376.393H320.466V371.437H323.333V373.904H335.044ZM349.775 367.749V359.393H352.597V367.749H349.775ZM342.886 364.793C342.22 365.623 341.405 366.297 340.442 366.815C339.479 367.334 338.427 367.645 337.286 367.749V365.149C338.649 364.941 339.753 364.326 340.597 363.304C341.442 362.267 341.872 360.993 341.886 359.482L344.709 359.66C344.709 360.712 344.516 361.726 344.131 362.704L348.797 365.326L347.486 367.482L342.886 364.793ZM352.842 376.393H338.309V371.504H349.82V370.526H338.286V368.46H352.597V373.349H341.109V374.326H352.842V376.393ZM369.728 368.682V376.46H366.928V359.393H369.728V365.837H371.751V368.682H369.728ZM364.24 359.86V364.326C364.24 366.608 363.869 368.593 363.128 370.282C362.403 371.971 361.351 373.274 359.973 374.193C358.61 375.112 357.003 375.571 355.151 375.571V372.771C357.151 372.771 358.684 372.03 359.751 370.549C360.832 369.052 361.373 366.986 361.373 364.349V362.549H355.151V359.86H364.24ZM380.304 365.637C379.341 367.06 378.185 368.178 376.837 368.993C375.489 369.808 374.067 370.223 372.571 370.237V367.437C373.667 367.437 374.719 367.089 375.726 366.393C376.734 365.682 377.585 364.719 378.282 363.504C378.978 362.274 379.43 360.897 379.637 359.371L382.504 359.837C382.326 361.037 382 362.2 381.526 363.326L388.526 367.926L387.037 370.304L380.304 365.637ZM388.615 373.037V375.793H372.259V373.037H388.615ZM311.996 387.46C311.063 388.437 309.929 389.215 308.596 389.793C307.277 390.371 305.892 390.674 304.44 390.704V388.149C305.492 388.104 306.507 387.86 307.485 387.415C308.477 386.971 309.315 386.363 309.996 385.593C310.677 384.808 311.107 383.919 311.285 382.926L314.129 383.415C313.966 384.2 313.729 384.889 313.418 385.482L320.107 388.526L319.018 390.793L311.996 387.46ZM320.285 394.215H313.507V396.726H310.685V394.215H303.929V391.771H320.285V394.215ZM319.507 397.926V400.393H304.929V395.415H307.796V397.926H319.507ZM337.505 400.46H334.883V392.637H333.127V400.171H330.527V383.46H333.127V389.837H334.883V383.393H337.505V400.46ZM329.127 383.815V399.593H321.883V383.815H324.438V389.126H326.549V383.815H329.127ZM326.549 391.771H324.438V396.949H326.549V391.771ZM346.836 388.282C345.977 388.8 344.91 389.208 343.636 389.504C342.377 389.786 341.065 389.941 339.702 389.971V387.86C341.036 387.815 342.265 387.645 343.391 387.349C344.532 387.037 345.325 386.615 345.769 386.082H339.991V384.015H345.88V382.704H348.725V384.015H354.591V386.082H348.902C348.873 386.23 348.806 386.393 348.702 386.571L354.925 387.971L354.369 390.037L346.836 388.282ZM348.725 393.637H354.48V397.793H342.902V398.593H354.68V400.393H340.147V396.215H351.725V395.437H340.102V393.637H345.88V392.704H339.125V390.593H355.48V392.704H348.725V393.637ZM371.789 388.904H373.811V391.393H371.789V393.526H368.989V383.393H371.789V384.815H373.811V387.282H371.789V388.904ZM363.989 385.904H357.1V383.66H366.767V389.349H359.945V390.704H363.945C364.789 390.704 365.574 390.652 366.3 390.549C367.041 390.43 367.641 390.267 368.1 390.06V392.304C367.67 392.512 367.07 392.674 366.3 392.793C365.545 392.897 364.715 392.949 363.811 392.949H357.145V387.26H363.989V385.904ZM364.767 393.86C366.974 393.86 368.722 394.126 370.011 394.66C371.315 395.178 371.967 396.037 371.967 397.237C371.967 398.423 371.315 399.274 370.011 399.793C368.722 400.326 366.974 400.593 364.767 400.593C362.559 400.593 360.804 400.326 359.5 399.793C358.211 399.274 357.567 398.423 357.567 397.237C357.567 396.037 358.211 395.178 359.5 394.66C360.804 394.126 362.559 393.86 364.767 393.86ZM364.767 398.326C367.567 398.326 368.967 397.963 368.967 397.237C368.967 396.497 367.567 396.126 364.767 396.126C361.967 396.126 360.567 396.497 360.567 397.237C360.567 397.963 361.967 398.326 364.767 398.326ZM388.603 391.526C389.433 391.882 390.07 392.378 390.515 393.015C390.959 393.652 391.181 394.393 391.181 395.237C391.181 396.186 390.915 397.015 390.381 397.726C389.863 398.437 389.115 398.986 388.137 399.371C387.159 399.756 386.026 399.949 384.737 399.949C383.448 399.949 382.322 399.756 381.359 399.371C380.396 398.986 379.648 398.437 379.115 397.726C378.596 397.015 378.337 396.186 378.337 395.237C378.337 394.378 378.559 393.637 379.003 393.015C379.448 392.378 380.085 391.882 380.915 391.526C380.263 391.186 379.759 390.741 379.403 390.193C379.063 389.645 378.892 389.008 378.892 388.282C378.892 387.393 379.137 386.623 379.626 385.971C380.115 385.304 380.796 384.793 381.67 384.437C382.559 384.082 383.581 383.904 384.737 383.904C385.907 383.904 386.937 384.082 387.826 384.437C388.715 384.793 389.403 385.304 389.892 385.971C390.381 386.623 390.626 387.393 390.626 388.282C390.626 388.993 390.448 389.63 390.092 390.193C389.752 390.741 389.255 391.186 388.603 391.526ZM384.737 386.215C383.892 386.215 383.226 386.408 382.737 386.793C382.248 387.178 382.003 387.712 382.003 388.393C382.003 389.045 382.248 389.563 382.737 389.949C383.226 390.334 383.892 390.526 384.737 390.526C385.596 390.526 386.277 390.334 386.781 389.949C387.285 389.563 387.537 389.045 387.537 388.393C387.537 387.726 387.277 387.2 386.759 386.815C386.255 386.415 385.581 386.215 384.737 386.215ZM384.737 397.615C385.759 397.615 386.559 397.393 387.137 396.949C387.729 396.504 388.026 395.904 388.026 395.149C388.026 394.393 387.729 393.8 387.137 393.371C386.559 392.926 385.759 392.704 384.737 392.704C383.729 392.704 382.937 392.926 382.359 393.371C381.781 393.8 381.492 394.393 381.492 395.149C381.492 395.904 381.781 396.504 382.359 396.949C382.952 397.393 383.744 397.615 384.737 397.615ZM398.099 399.949C396.84 399.949 395.714 399.63 394.721 398.993C393.728 398.356 392.951 397.437 392.388 396.237C391.825 395.023 391.543 393.586 391.543 391.926C391.543 390.267 391.825 388.837 392.388 387.637C392.951 386.423 393.728 385.497 394.721 384.86C395.714 384.223 396.84 383.904 398.099 383.904C399.373 383.904 400.506 384.223 401.499 384.86C402.491 385.497 403.262 386.423 403.81 387.637C404.373 388.837 404.654 390.267 404.654 391.926C404.654 393.586 404.373 395.023 403.81 396.237C403.262 397.437 402.491 398.356 401.499 398.993C400.506 399.63 399.373 399.949 398.099 399.949ZM398.099 397.282C399.151 397.282 399.98 396.837 400.588 395.949C401.21 395.045 401.521 393.704 401.521 391.926C401.521 390.149 401.21 388.815 400.588 387.926C399.98 387.023 399.151 386.571 398.099 386.571C397.062 386.571 396.232 387.023 395.61 387.926C395.002 388.815 394.699 390.149 394.699 391.926C394.699 393.704 395.002 395.045 395.61 395.949C396.232 396.837 397.062 397.282 398.099 397.282Z" fill="#444444"/>
<path opacity="0.9" d="M351.051 213.879C351.88 214.234 352.517 214.73 352.962 215.368C353.406 216.005 353.628 216.745 353.628 217.59C353.628 218.538 353.362 219.368 352.828 220.079C352.31 220.79 351.562 221.338 350.584 221.723C349.606 222.108 348.473 222.301 347.184 222.301C345.895 222.301 344.769 222.108 343.806 221.723C342.843 221.338 342.095 220.79 341.562 220.079C341.043 219.368 340.784 218.538 340.784 217.59C340.784 216.73 341.006 215.99 341.451 215.368C341.895 214.73 342.532 214.234 343.362 213.879C342.71 213.538 342.206 213.093 341.851 212.545C341.51 211.997 341.34 211.36 341.34 210.634C341.34 209.745 341.584 208.975 342.073 208.323C342.562 207.656 343.243 207.145 344.117 206.79C345.006 206.434 346.028 206.256 347.184 206.256C348.354 206.256 349.384 206.434 350.273 206.79C351.162 207.145 351.851 207.656 352.34 208.323C352.828 208.975 353.073 209.745 353.073 210.634C353.073 211.345 352.895 211.982 352.54 212.545C352.199 213.093 351.703 213.538 351.051 213.879ZM347.184 208.568C346.34 208.568 345.673 208.76 345.184 209.145C344.695 209.53 344.451 210.064 344.451 210.745C344.451 211.397 344.695 211.916 345.184 212.301C345.673 212.686 346.34 212.879 347.184 212.879C348.043 212.879 348.725 212.686 349.228 212.301C349.732 211.916 349.984 211.397 349.984 210.745C349.984 210.079 349.725 209.553 349.206 209.168C348.703 208.768 348.028 208.568 347.184 208.568ZM347.184 219.968C348.206 219.968 349.006 219.745 349.584 219.301C350.177 218.856 350.473 218.256 350.473 217.501C350.473 216.745 350.177 216.153 349.584 215.723C349.006 215.279 348.206 215.056 347.184 215.056C346.177 215.056 345.384 215.279 344.806 215.723C344.228 216.153 343.94 216.745 343.94 217.501C343.94 218.256 344.228 218.856 344.806 219.301C345.399 219.745 346.191 219.968 347.184 219.968ZM360.546 222.301C359.287 222.301 358.161 221.982 357.168 221.345C356.176 220.708 355.398 219.79 354.835 218.59C354.272 217.375 353.991 215.938 353.991 214.279C353.991 212.619 354.272 211.19 354.835 209.99C355.398 208.775 356.176 207.849 357.168 207.212C358.161 206.575 359.287 206.256 360.546 206.256C361.82 206.256 362.953 206.575 363.946 207.212C364.939 207.849 365.709 208.775 366.257 209.99C366.82 211.19 367.102 212.619 367.102 214.279C367.102 215.938 366.82 217.375 366.257 218.59C365.709 219.79 364.939 220.708 363.946 221.345C362.953 221.982 361.82 222.301 360.546 222.301ZM360.546 219.634C361.598 219.634 362.428 219.19 363.035 218.301C363.657 217.397 363.968 216.056 363.968 214.279C363.968 212.501 363.657 211.168 363.035 210.279C362.428 209.375 361.598 208.923 360.546 208.923C359.509 208.923 358.679 209.375 358.057 210.279C357.45 211.168 357.146 212.501 357.146 214.279C357.146 216.056 357.45 217.397 358.057 218.301C358.679 219.19 359.509 219.634 360.546 219.634Z" fill="white"/>
<line x1="755.558" y1="338.811" x2="1190.26" y2="338.811" stroke="#999999" stroke-width="2" stroke-dasharray="4 4"/>
<path opacity="0.9" d="M739.504 348.055C738.244 348.055 737.118 347.737 736.126 347.1C735.133 346.463 734.355 345.544 733.792 344.344C733.23 343.129 732.948 341.692 732.948 340.033C732.948 338.374 733.23 336.944 733.792 335.744C734.355 334.529 735.133 333.604 736.126 332.967C737.118 332.329 738.244 332.011 739.504 332.011C740.778 332.011 741.911 332.329 742.904 332.967C743.896 333.604 744.667 334.529 745.215 335.744C745.778 336.944 746.059 338.374 746.059 340.033C746.059 341.692 745.778 343.129 745.215 344.344C744.667 345.544 743.896 346.463 742.904 347.1C741.911 347.737 740.778 348.055 739.504 348.055ZM739.504 345.389C740.555 345.389 741.385 344.944 741.992 344.055C742.615 343.152 742.926 341.811 742.926 340.033C742.926 338.255 742.615 336.922 741.992 336.033C741.385 335.129 740.555 334.678 739.504 334.678C738.467 334.678 737.637 335.129 737.015 336.033C736.407 336.922 736.104 338.255 736.104 340.033C736.104 341.811 736.407 343.152 737.015 344.055C737.637 344.944 738.467 345.389 739.504 345.389Z" fill="#444444"/>
<path d="M831.164 247.704C831.164 242.181 835.641 237.704 841.164 237.704H901.164C906.686 237.704 911.164 242.181 911.164 247.704V337.704H831.164V247.704Z" fill="url(#paint3_linear_6051_254)"/>
<path d="M831.164 339.811H911.164V429.811C911.164 435.334 906.686 439.811 901.164 439.811H841.164C835.641 439.811 831.164 435.334 831.164 429.811V339.811Z" fill="url(#paint4_linear_6051_254)"/>
<path opacity="0.9" d="M1001.09 376.422H984.736V373.978H991.491V372.689C989.684 372.555 988.239 372.17 987.158 371.533C986.076 370.896 985.536 370.022 985.536 368.911C985.536 367.652 986.217 366.696 987.58 366.044C988.943 365.392 990.721 365.066 992.913 365.066C995.106 365.066 996.884 365.392 998.247 366.044C999.61 366.696 1000.29 367.652 1000.29 368.911C1000.29 370.022 999.743 370.896 998.647 371.533C997.565 372.17 996.121 372.555 994.313 372.689V373.978H1001.09V376.422ZM988.513 368.911C988.513 369.4 988.913 369.778 989.713 370.044C990.528 370.296 991.595 370.422 992.913 370.422C994.232 370.422 995.291 370.296 996.091 370.044C996.891 369.778 997.291 369.4 997.291 368.911C997.291 368.422 996.884 368.044 996.069 367.778C995.269 367.511 994.217 367.378 992.913 367.378C991.61 367.378 990.55 367.511 989.736 367.778C988.921 368.044 988.513 368.422 988.513 368.911ZM1000.31 379.822V382.311H985.736V377.355H988.602V379.822H1000.31ZM1015.04 373.666V365.311H1017.87V373.666H1015.04ZM1008.16 370.711C1007.49 371.54 1006.67 372.215 1005.71 372.733C1004.75 373.252 1003.7 373.563 1002.56 373.666V371.066C1003.92 370.859 1005.02 370.244 1005.87 369.222C1006.71 368.185 1007.14 366.911 1007.16 365.4L1009.98 365.578C1009.98 366.629 1009.79 367.644 1009.4 368.622L1014.07 371.244L1012.76 373.4L1008.16 370.711ZM1018.11 382.311H1003.58V377.422H1015.09V376.444H1003.56V374.378H1017.87V379.266H1006.38V380.244H1018.11V382.311ZM1035 374.6V382.378H1032.2V365.311H1035V371.755H1037.02V374.6H1035ZM1029.51 365.778V370.244C1029.51 372.526 1029.14 374.511 1028.4 376.2C1027.67 377.889 1026.62 379.192 1025.24 380.111C1023.88 381.029 1022.27 381.489 1020.42 381.489V378.689C1022.42 378.689 1023.95 377.948 1025.02 376.466C1026.1 374.97 1026.64 372.903 1026.64 370.266V368.466H1020.42V365.778H1029.51ZM1045.57 371.555C1044.61 372.978 1043.45 374.096 1042.11 374.911C1040.76 375.726 1039.34 376.14 1037.84 376.155V373.355C1038.94 373.355 1039.99 373.007 1041 372.311C1042 371.6 1042.85 370.637 1043.55 369.422C1044.25 368.192 1044.7 366.815 1044.91 365.289L1047.77 365.755C1047.6 366.955 1047.27 368.118 1046.8 369.244L1053.8 373.844L1052.31 376.222L1045.57 371.555ZM1053.88 378.955V381.711H1037.53V378.955H1053.88ZM1067.59 369.378C1066.65 370.355 1065.52 371.133 1064.19 371.711C1062.87 372.289 1061.48 372.592 1060.03 372.622V370.066C1061.08 370.022 1062.1 369.778 1063.08 369.333C1064.07 368.889 1064.91 368.281 1065.59 367.511C1066.27 366.726 1066.7 365.837 1066.88 364.844L1069.72 365.333C1069.56 366.118 1069.32 366.807 1069.01 367.4L1075.7 370.444L1074.61 372.711L1067.59 369.378ZM1075.88 376.133H1069.1V378.644H1066.28V376.133H1059.52V373.689H1075.88V376.133ZM1075.1 379.844V382.311H1060.52V377.333H1063.39V379.844H1075.1ZM1093.1 382.378H1090.47V374.555H1088.72V382.089H1086.12V365.378H1088.72V371.755H1090.47V365.311H1093.1V382.378ZM1084.72 365.733V381.511H1077.47V365.733H1080.03V371.044H1082.14V365.733H1084.72ZM1082.14 373.689H1080.03V378.866H1082.14V373.689ZM1102.43 370.2C1101.57 370.718 1100.5 371.126 1099.23 371.422C1097.97 371.703 1096.66 371.859 1095.29 371.889V369.778C1096.63 369.733 1097.86 369.563 1098.98 369.266C1100.12 368.955 1100.92 368.533 1101.36 368H1095.58V365.933H1101.47V364.622H1104.32V365.933H1110.18V368H1104.49C1104.46 368.148 1104.4 368.311 1104.29 368.489L1110.52 369.889L1109.96 371.955L1102.43 370.2ZM1104.32 375.555H1110.07V379.711H1098.49V380.511H1110.27V382.311H1095.74V378.133H1107.32V377.355H1095.69V375.555H1101.47V374.622H1094.72V372.511H1111.07V374.622H1104.32V375.555ZM1127.38 370.822H1129.4V373.311H1127.38V375.444H1124.58V365.311H1127.38V366.733H1129.4V369.2H1127.38V370.822ZM1119.58 367.822H1112.69V365.578H1122.36V371.266H1115.54V372.622H1119.54C1120.38 372.622 1121.17 372.57 1121.89 372.466C1122.63 372.348 1123.23 372.185 1123.69 371.978V374.222C1123.26 374.429 1122.66 374.592 1121.89 374.711C1121.14 374.815 1120.31 374.866 1119.4 374.866H1112.74V369.178H1119.58V367.822ZM1120.36 375.778C1122.57 375.778 1124.31 376.044 1125.6 376.578C1126.91 377.096 1127.56 377.955 1127.56 379.155C1127.56 380.34 1126.91 381.192 1125.6 381.711C1124.31 382.244 1122.57 382.511 1120.36 382.511C1118.15 382.511 1116.4 382.244 1115.09 381.711C1113.8 381.192 1113.16 380.34 1113.16 379.155C1113.16 377.955 1113.8 377.096 1115.09 376.578C1116.4 376.044 1118.15 375.778 1120.36 375.778ZM1120.36 380.244C1123.16 380.244 1124.56 379.881 1124.56 379.155C1124.56 378.415 1123.16 378.044 1120.36 378.044C1117.56 378.044 1116.16 378.415 1116.16 379.155C1116.16 379.881 1117.56 380.244 1120.36 380.244ZM1141.07 369.955V372.311H1130.71V369.955H1141.07ZM1141.07 375.355V377.733H1130.71V375.355H1141.07ZM1149.14 381.866C1147.88 381.866 1146.75 381.548 1145.76 380.911C1144.77 380.274 1143.99 379.355 1143.43 378.155C1142.87 376.94 1142.58 375.503 1142.58 373.844C1142.58 372.185 1142.87 370.755 1143.43 369.555C1143.99 368.34 1144.77 367.415 1145.76 366.778C1146.75 366.14 1147.88 365.822 1149.14 365.822C1150.41 365.822 1151.55 366.14 1152.54 366.778C1153.53 367.415 1154.3 368.34 1154.85 369.555C1155.41 370.755 1155.69 372.185 1155.69 373.844C1155.69 375.503 1155.41 376.94 1154.85 378.155C1154.3 379.355 1153.53 380.274 1152.54 380.911C1151.55 381.548 1150.41 381.866 1149.14 381.866ZM1149.14 379.2C1150.19 379.2 1151.02 378.755 1151.63 377.866C1152.25 376.963 1152.56 375.622 1152.56 373.844C1152.56 372.066 1152.25 370.733 1151.63 369.844C1151.02 368.94 1150.19 368.489 1149.14 368.489C1148.1 368.489 1147.27 368.94 1146.65 369.844C1146.04 370.733 1145.74 372.066 1145.74 373.844C1145.74 375.622 1146.04 376.963 1146.65 377.866C1147.27 378.755 1148.1 379.2 1149.14 379.2Z" fill="#444444"/>
<path opacity="0.9" d="M859.597 295.704H856.464V282.66H853.219V280.149H859.597V295.704ZM870.67 295.949C869.411 295.949 868.285 295.63 867.292 294.993C866.3 294.356 865.522 293.437 864.959 292.237C864.396 291.023 864.115 289.586 864.115 287.926C864.115 286.267 864.396 284.837 864.959 283.637C865.522 282.423 866.3 281.497 867.292 280.86C868.285 280.223 869.411 279.904 870.67 279.904C871.944 279.904 873.077 280.223 874.07 280.86C875.063 281.497 875.833 282.423 876.381 283.637C876.944 284.837 877.226 286.267 877.226 287.926C877.226 289.586 876.944 291.023 876.381 292.237C875.833 293.437 875.063 294.356 874.07 294.993C873.077 295.63 871.944 295.949 870.67 295.949ZM870.67 293.282C871.722 293.282 872.552 292.837 873.159 291.949C873.781 291.045 874.092 289.704 874.092 287.926C874.092 286.149 873.781 284.815 873.159 283.926C872.552 283.023 871.722 282.571 870.67 282.571C869.633 282.571 868.803 283.023 868.181 283.926C867.574 284.815 867.27 286.149 867.27 287.926C867.27 289.704 867.574 291.045 868.181 291.949C868.803 292.837 869.633 293.282 870.67 293.282ZM884.01 295.949C882.751 295.949 881.625 295.63 880.632 294.993C879.64 294.356 878.862 293.437 878.299 292.237C877.736 291.023 877.454 289.586 877.454 287.926C877.454 286.267 877.736 284.837 878.299 283.637C878.862 282.423 879.64 281.497 880.632 280.86C881.625 280.223 882.751 279.904 884.01 279.904C885.284 279.904 886.417 280.223 887.41 280.86C888.403 281.497 889.173 282.423 889.721 283.637C890.284 284.837 890.565 286.267 890.565 287.926C890.565 289.586 890.284 291.023 889.721 292.237C889.173 293.437 888.403 294.356 887.41 294.993C886.417 295.63 885.284 295.949 884.01 295.949ZM884.01 293.282C885.062 293.282 885.891 292.837 886.499 291.949C887.121 291.045 887.432 289.704 887.432 287.926C887.432 286.149 887.121 284.815 886.499 283.926C885.891 283.023 885.062 282.571 884.01 282.571C882.973 282.571 882.143 283.023 881.521 283.926C880.914 284.815 880.61 286.149 880.61 287.926C880.61 289.704 880.914 291.045 881.521 291.949C882.143 292.837 882.973 293.282 884.01 293.282Z" fill="white"/>
<path opacity="0.9" d="M870.152 397.811H858.597V395.767L864.708 389.944C865.39 389.278 865.849 388.715 866.086 388.255C866.323 387.781 866.441 387.307 866.441 386.833C866.441 386.137 866.204 385.604 865.73 385.233C865.271 384.848 864.59 384.655 863.686 384.655C862.175 384.655 861.019 385.189 860.219 386.255L857.952 384.767C858.56 383.907 859.382 383.233 860.419 382.744C861.456 382.255 862.641 382.011 863.975 382.011C865.101 382.011 866.086 382.196 866.93 382.567C867.775 382.922 868.427 383.441 868.886 384.122C869.36 384.804 869.597 385.604 869.597 386.522C869.597 387.352 869.412 388.137 869.041 388.878C868.686 389.618 868.004 390.463 866.997 391.411L863.019 395.255H870.152V397.811ZM877.67 398.055C876.411 398.055 875.285 397.737 874.292 397.1C873.3 396.463 872.522 395.544 871.959 394.344C871.396 393.129 871.115 391.692 871.115 390.033C871.115 388.374 871.396 386.944 871.959 385.744C872.522 384.529 873.3 383.604 874.292 382.967C875.285 382.329 876.411 382.011 877.67 382.011C878.944 382.011 880.077 382.329 881.07 382.967C882.063 383.604 882.833 384.529 883.381 385.744C883.944 386.944 884.226 388.374 884.226 390.033C884.226 391.692 883.944 393.129 883.381 394.344C882.833 395.544 882.063 396.463 881.07 397.1C880.077 397.737 878.944 398.055 877.67 398.055ZM877.67 395.389C878.722 395.389 879.552 394.944 880.159 394.055C880.781 393.152 881.092 391.811 881.092 390.033C881.092 388.255 880.781 386.922 880.159 386.033C879.552 385.129 878.722 384.678 877.67 384.678C876.633 384.678 875.803 385.129 875.181 386.033C874.574 386.922 874.27 388.255 874.27 390.033C874.27 391.811 874.574 393.152 875.181 394.055C875.803 394.944 876.633 395.389 877.67 395.389Z" fill="white"/>
<rect x="507.426" y="297.275" width="145.45" height="47.535" fill="url(#paint5_linear_6051_254)"/>
<path d="M682.045 321.042L638.291 363.185L638.291 278.9L682.045 321.042Z" fill="#D9D9D9"/>
<path opacity="0.9" d="M576.672 258.46H574.05V250.637H572.294V258.171H569.694V241.46H572.294V247.837H574.05V241.393H576.672V258.46ZM568.294 241.815V257.593H561.05V241.815H563.605V247.126H565.716V241.815H568.294ZM565.716 249.771H563.605V254.949H565.716V249.771ZM586.003 246.282C585.144 246.8 584.077 247.208 582.803 247.504C581.544 247.786 580.232 247.941 578.869 247.971V245.86C580.203 245.815 581.432 245.645 582.558 245.349C583.699 245.037 584.492 244.615 584.936 244.082H579.158V242.015H585.047V240.704H587.892V242.015H593.758V244.082H588.069C588.04 244.23 587.973 244.393 587.869 244.571L594.092 245.971L593.536 248.037L586.003 246.282ZM587.892 251.637H593.647V255.793H582.069V256.593H593.847V258.393H579.314V254.215H590.892V253.437H579.269V251.637H585.047V250.704H578.292V248.593H594.647V250.704H587.892V251.637ZM610.956 246.904H612.978V249.393H610.956V251.526H608.156V241.393H610.956V242.815H612.978V245.282H610.956V246.904ZM603.156 243.904H596.267V241.66H605.934V247.349H599.112V248.704H603.112C603.956 248.704 604.741 248.652 605.467 248.549C606.208 248.43 606.808 248.267 607.267 248.06V250.304C606.837 250.512 606.237 250.674 605.467 250.793C604.712 250.897 603.882 250.949 602.978 250.949H596.312V245.26H603.156V243.904ZM603.934 251.86C606.141 251.86 607.889 252.126 609.178 252.66C610.482 253.178 611.134 254.037 611.134 255.237C611.134 256.423 610.482 257.274 609.178 257.793C607.889 258.326 606.141 258.593 603.934 258.593C601.726 258.593 599.971 258.326 598.667 257.793C597.378 257.274 596.734 256.423 596.734 255.237C596.734 254.037 597.378 253.178 598.667 252.66C599.971 252.126 601.726 251.86 603.934 251.86ZM603.934 256.326C606.734 256.326 608.134 255.963 608.134 255.237C608.134 254.497 606.734 254.126 603.934 254.126C601.134 254.126 599.734 254.497 599.734 255.237C599.734 255.963 601.134 256.326 603.934 256.326ZM632.948 247.282V250.637H630.148V241.393H632.948V244.437H634.97V247.282H632.948ZM627.793 243.837C627.793 246.074 626.933 247.726 625.215 248.793C623.511 249.845 621.178 250.371 618.215 250.371V247.86C620.289 247.83 621.926 247.526 623.126 246.949C624.326 246.356 624.926 245.519 624.926 244.437V244.126H618.215V241.66H627.793V243.837ZM632.948 251.349V258.393H618.837V251.349H632.948ZM630.148 255.949V253.793H621.659V255.949H630.148ZM643.524 247.549C642.575 248.926 641.427 250.008 640.079 250.793C638.731 251.578 637.301 251.971 635.79 251.971V249.171C636.887 249.171 637.938 248.837 638.946 248.171C639.953 247.504 640.805 246.578 641.501 245.393C642.198 244.208 642.65 242.867 642.857 241.371L645.724 241.837C645.546 243.052 645.235 244.171 644.79 245.193L651.724 249.637L650.257 252.015L643.524 247.549ZM651.835 255.037V257.793H635.479V255.037H642.235V250.949H645.079V255.037H651.835Z" fill="#FF9603"/>
<path opacity="0.9" d="M561.316 385.904V383.904H567.45V382.704H570.294V383.904H576.427V385.904H561.316ZM561.827 388.815C561.827 387.986 562.457 387.378 563.716 386.993C564.975 386.608 566.694 386.415 568.872 386.415C571.05 386.415 572.768 386.608 574.027 386.993C575.287 387.378 575.916 387.986 575.916 388.815C575.916 389.645 575.287 390.252 574.027 390.637C572.783 391.008 571.064 391.193 568.872 391.193C566.679 391.193 564.953 391.008 563.694 390.637C562.45 390.252 561.827 389.645 561.827 388.815ZM573.116 388.815C573.116 388.608 572.731 388.452 571.961 388.349C571.205 388.245 570.175 388.193 568.872 388.193C566.042 388.193 564.627 388.4 564.627 388.815C564.627 389.23 566.042 389.437 568.872 389.437C570.175 389.437 571.205 389.386 571.961 389.282C572.731 389.178 573.116 389.023 573.116 388.815ZM577.05 394.015H560.694V391.949H577.05V394.015ZM576.05 394.749V400.393H561.694V394.749H564.45V395.637H573.316V394.749H576.05ZM573.316 397.482H564.45V398.437H573.316V397.482ZM586.336 388.682C585.388 389.897 584.24 390.852 582.892 391.549C581.558 392.23 580.151 392.571 578.669 392.571V389.771C579.751 389.771 580.795 389.489 581.803 388.926C582.81 388.363 583.655 387.578 584.336 386.571C585.032 385.563 585.477 384.43 585.669 383.171L588.536 383.615C588.388 384.534 588.099 385.474 587.669 386.437L594.492 390.104L593.158 392.571L586.336 388.682ZM587.914 396.749V400.86H585.025V396.749H578.292V394.015H594.647V396.749H587.914ZM610.956 388.904H612.978V391.393H610.956V393.526H608.156V383.393H610.956V384.815H612.978V387.282H610.956V388.904ZM603.156 385.904H596.267V383.66H605.934V389.349H599.112V390.704H603.112C603.956 390.704 604.741 390.652 605.467 390.549C606.208 390.43 606.808 390.267 607.267 390.06V392.304C606.837 392.512 606.237 392.674 605.467 392.793C604.712 392.897 603.882 392.949 602.978 392.949H596.312V387.26H603.156V385.904ZM603.934 393.86C606.141 393.86 607.889 394.126 609.178 394.66C610.482 395.178 611.134 396.037 611.134 397.237C611.134 398.423 610.482 399.274 609.178 399.793C607.889 400.326 606.141 400.593 603.934 400.593C601.726 400.593 599.971 400.326 598.667 399.793C597.378 399.274 596.734 398.423 596.734 397.237C596.734 396.037 597.378 395.178 598.667 394.66C599.971 394.126 601.726 393.86 603.934 393.86ZM603.934 398.326C606.734 398.326 608.134 397.963 608.134 397.237C608.134 396.497 606.734 396.126 603.934 396.126C601.134 396.126 599.734 396.497 599.734 397.237C599.734 397.963 601.134 398.326 603.934 398.326ZM625.637 388.215C624.793 388.763 623.756 389.193 622.526 389.504C621.296 389.8 620.007 389.963 618.659 389.993V387.682C619.933 387.652 621.133 387.467 622.259 387.126C623.385 386.771 624.156 386.304 624.57 385.726H618.859V383.46H633.259V385.726H627.704C627.689 385.919 627.615 386.134 627.482 386.371L633.682 387.837L633.037 390.06L625.637 388.215ZM634.237 393.149H617.881V390.86H634.237V393.149ZM626.059 394.082C630.933 394.082 633.37 395.171 633.37 397.349C633.37 398.504 632.719 399.334 631.415 399.837C630.111 400.356 628.326 400.615 626.059 400.615C623.793 400.615 622 400.356 620.681 399.837C619.378 399.319 618.726 398.489 618.726 397.349C618.726 395.171 621.17 394.082 626.059 394.082ZM626.059 398.393C628.948 398.393 630.393 398.045 630.393 397.349C630.393 396.652 628.948 396.304 626.059 396.304C624.726 396.304 623.667 396.386 622.881 396.549C622.096 396.712 621.704 396.978 621.704 397.349C621.704 397.719 622.096 397.986 622.881 398.149C623.667 398.312 624.726 398.393 626.059 398.393ZM650.546 392.682V400.46H647.746V383.393H650.546V389.837H652.568V392.682H650.546ZM645.057 383.86V388.326C645.057 390.608 644.687 392.593 643.946 394.282C643.22 395.971 642.168 397.274 640.79 398.193C639.427 399.112 637.82 399.571 635.968 399.571V396.771C637.968 396.771 639.501 396.03 640.568 394.549C641.65 393.052 642.19 390.986 642.19 388.349V386.549H635.968V383.86H645.057Z" fill="#0172FF"/>
<rect x="154.713" y="506.268" width="148" height="48" rx="24" fill="white" stroke="#999999" stroke-width="2" stroke-dasharray="2 2"/>
<path d="M211.694 525.535V523.268H215.76V521.646H218.627V523.268H222.227V525.535H211.694ZM222.76 531.912V529.423H224.605V527.712H222.76V525.246H224.605V521.957H227.36V534.69H224.605V531.912H222.76ZM217.182 533.223C215.79 533.223 214.634 532.92 213.716 532.312C212.812 531.69 212.36 530.823 212.36 529.712C212.36 528.601 212.812 527.735 213.716 527.112C214.634 526.49 215.79 526.179 217.182 526.179C218.59 526.179 219.745 526.49 220.649 527.112C221.568 527.735 222.027 528.601 222.027 529.712C222.027 530.823 221.568 531.69 220.649 532.312C219.745 532.92 218.59 533.223 217.182 533.223ZM217.182 528.335C216.531 528.335 216.005 528.468 215.605 528.735C215.219 529.001 215.027 529.327 215.027 529.712C215.027 530.098 215.219 530.423 215.605 530.69C215.99 530.942 216.516 531.068 217.182 531.068C217.849 531.068 218.375 530.942 218.76 530.69C219.16 530.423 219.36 530.098 219.36 529.712C219.36 529.327 219.16 529.001 218.76 528.735C218.375 528.468 217.849 528.335 217.182 528.335ZM227.627 538.957H213.049V533.823H215.894V536.379H227.627V538.957ZM245.313 539.023H242.691V531.201H240.936V538.735H238.336V522.023H240.936V528.401H242.691V521.957H245.313V539.023ZM234.913 525.09C234.884 526.749 234.795 528.246 234.647 529.579L238.358 536.623L236.202 537.912L233.847 533.446C233.402 534.927 232.802 536.068 232.047 536.868C231.306 537.653 230.417 538.083 229.38 538.157V535.268C230.254 535.09 230.943 534.105 231.447 532.312C231.95 530.505 232.217 528.098 232.247 525.09H229.669V522.423H237.313V525.09H234.913Z" fill="black"/>
<rect x="886.55" y="505.268" width="150" height="50" rx="25" fill="#444444"/>
<path d="M944.566 528.801H942.544V534.668H939.744V521.957H942.544V525.957H944.566V528.801ZM938.855 531.868C938.396 532.061 937.773 532.216 936.988 532.335C936.218 532.453 935.396 532.512 934.522 532.512H927.899V522.223H937.855V524.557H930.699V526.246H937.544V528.446H930.699V530.179H934.699C935.529 530.179 936.314 530.127 937.055 530.023C937.796 529.905 938.396 529.757 938.855 529.579V531.868ZM942.855 536.335V538.957H928.433V533.735H931.299V536.335H942.855ZM953.119 528.112C952.171 529.49 951.023 530.572 949.675 531.357C948.327 532.142 946.897 532.535 945.386 532.535V529.735C946.482 529.735 947.534 529.401 948.542 528.735C949.549 528.068 950.401 527.142 951.097 525.957C951.793 524.772 952.245 523.431 952.453 521.935L955.319 522.401C955.142 523.616 954.83 524.735 954.386 525.757L961.319 530.201L959.853 532.579L953.119 528.112ZM961.43 535.601V538.357H945.075V535.601H951.83V531.512H954.675V535.601H961.43ZM970.428 526.779C969.584 527.327 968.547 527.757 967.317 528.068C966.087 528.364 964.798 528.527 963.45 528.557V526.246C964.724 526.216 965.924 526.031 967.05 525.69C968.176 525.335 968.947 524.868 969.361 524.29H963.65V522.023H978.05V524.29H972.495C972.48 524.483 972.406 524.698 972.273 524.935L978.473 526.401L977.828 528.623L970.428 526.779ZM972.25 532.69C974.102 532.779 975.547 533.083 976.584 533.601C977.635 534.12 978.161 534.89 978.161 535.912C978.161 537.068 977.51 537.898 976.206 538.401C974.902 538.92 973.117 539.179 970.85 539.179C968.584 539.179 966.791 538.92 965.473 538.401C964.169 537.883 963.517 537.053 963.517 535.912C963.517 534.89 964.043 534.12 965.095 533.601C966.147 533.083 967.598 532.779 969.45 532.69V531.646H962.673V529.335H979.028V531.646H972.25V532.69ZM975.184 535.912C975.184 535.216 973.739 534.868 970.85 534.868C969.517 534.868 968.458 534.949 967.673 535.112C966.887 535.275 966.495 535.542 966.495 535.912C966.495 536.283 966.887 536.549 967.673 536.712C968.458 536.875 969.517 536.957 970.85 536.957C973.739 536.957 975.184 536.609 975.184 535.912ZM995.804 531.468H992.981V521.957H995.804V531.468ZM987.87 524.446H980.826V522.223H990.648V527.823H983.67V529.09H987.87C988.715 529.09 989.5 529.038 990.226 528.935C990.966 528.816 991.559 528.653 992.004 528.446V530.668C991.559 530.875 990.966 531.038 990.226 531.157C989.5 531.261 988.692 531.312 987.804 531.312H980.87V525.735H987.87V524.446ZM995.804 532.09V538.957H981.515V532.09H984.292V533.268H993.004V532.09H995.804ZM993.004 535.49H984.292V536.69H993.004V535.49Z" fill="white"/>
<defs>
<linearGradient id="paint0_linear_6051_254" x1="138.327" y1="39.811" x2="138.327" y2="339.811" gradientUnits="userSpaceOnUse">
<stop stop-color="#FF9500"/>
<stop offset="1" stop-color="#FFD292"/>
</linearGradient>
<linearGradient id="paint1_linear_6051_254" x1="138.327" y1="339.811" x2="138.327" y2="399.811" gradientUnits="userSpaceOnUse">
<stop stop-color="#C8E0FF"/>
<stop offset="1" stop-color="#0172FF"/>
</linearGradient>
<linearGradient id="paint2_linear_6051_254" x1="354.04" y1="104.302" x2="354.04" y2="339.811" gradientUnits="userSpaceOnUse">
<stop stop-color="#FF9500"/>
<stop offset="1" stop-color="#FFD292"/>
</linearGradient>
<linearGradient id="paint3_linear_6051_254" x1="871.164" y1="237.704" x2="871.164" y2="337.704" gradientUnits="userSpaceOnUse">
<stop stop-color="#FF9500"/>
<stop offset="1" stop-color="#FFD292"/>
</linearGradient>
<linearGradient id="paint4_linear_6051_254" x1="871.164" y1="339.811" x2="871.164" y2="439.811" gradientUnits="userSpaceOnUse">
<stop stop-color="#C8E0FF"/>
<stop offset="1" stop-color="#0172FF"/>
</linearGradient>
<linearGradient id="paint5_linear_6051_254" x1="507.426" y1="321.042" x2="652.876" y2="321.042" gradientUnits="userSpaceOnUse">
<stop offset="0.3" stop-color="white"/>
<stop offset="0.754808" stop-color="#D9D9D9"/>
</linearGradient>
</defs>
</svg>
